<svg width="207" height="56" viewBox="0 0 207 56" fill="none" xmlns="http://www.w3.org/2000/svg">
<path d="M74.952 43.448C73.2667 43.448 71.7733 43.1493 70.472 42.552C69.1707 41.9547 68.1467 41.08 67.4 39.928C66.6747 38.7547 66.312 37.336 66.312 35.672V34.872H69.736V35.672C69.736 37.2507 70.2053 38.4347 71.144 39.224C72.104 40.0133 73.3733 40.408 74.952 40.408C76.552 40.408 77.7573 40.0773 78.568 39.416C79.3787 38.7333 79.784 37.8587 79.784 36.792C79.784 36.088 79.592 35.512 79.208 35.064C78.824 34.616 78.28 34.264 77.576 34.008C76.872 33.7307 76.0293 33.4747 75.048 33.24L73.864 32.952C72.4347 32.6107 71.1867 32.1947 70.12 31.704C69.0747 31.192 68.264 30.52 67.688 29.688C67.112 28.856 66.824 27.7893 66.824 26.488C66.824 25.1653 67.144 24.0347 67.784 23.096C68.4453 22.1573 69.352 21.432 70.504 20.92C71.656 20.408 73.0107 20.152 74.568 20.152C76.1253 20.152 77.512 20.4187 78.728 20.952C79.9653 21.4853 80.936 22.2747 81.64 23.32C82.344 24.3653 82.696 25.6773 82.696 27.256V28.408H79.272V27.256C79.272 26.296 79.0693 25.5173 78.664 24.92C78.28 24.3227 77.736 23.8853 77.032 23.608C76.328 23.3307 75.5067 23.192 74.568 23.192C73.2027 23.192 72.136 23.48 71.368 24.056C70.6213 24.6107 70.248 25.3893 70.248 26.392C70.248 27.0747 70.408 27.64 70.728 28.088C71.0693 28.5147 71.56 28.8667 72.2 29.144C72.84 29.4213 73.64 29.6667 74.6 29.88L75.784 30.168C77.2347 30.488 78.5147 30.904 79.624 31.416C80.7333 31.9067 81.608 32.5787 82.248 33.432C82.888 34.2853 83.208 35.384 83.208 36.728C83.208 38.072 82.8667 39.2453 82.184 40.248C81.5227 41.2507 80.5733 42.04 79.336 42.616C78.0987 43.1707 76.6373 43.448 74.952 43.448ZM91.828 43.448C90.6973 43.448 89.684 43.256 88.788 42.872C87.9133 42.488 87.2093 41.9227 86.676 41.176C86.164 40.4293 85.908 39.5227 85.908 38.456C85.908 37.368 86.164 36.472 86.676 35.768C87.2093 35.0427 87.924 34.4987 88.82 34.136C89.7373 33.7733 90.772 33.592 91.924 33.592H96.724V32.568C96.724 31.6507 96.4467 30.9147 95.892 30.36C95.3373 29.8053 94.484 29.528 93.332 29.528C92.2013 29.528 91.3373 29.7947 90.74 30.328C90.1427 30.8613 89.748 31.5547 89.556 32.408L86.484 31.416C86.74 30.5627 87.1453 29.7947 87.7 29.112C88.276 28.408 89.0333 27.8427 89.972 27.416C90.9107 26.9893 92.0413 26.776 93.364 26.776C95.412 26.776 97.0227 27.2987 98.196 28.344C99.3693 29.3893 99.956 30.872 99.956 32.792V39.288C99.956 39.928 100.255 40.248 100.852 40.248H102.196V43H99.732C98.9853 43 98.3773 42.808 97.908 42.424C97.4387 42.04 97.204 41.5173 97.204 40.856V40.76H96.724C96.5533 41.08 96.2973 41.4533 95.956 41.88C95.6147 42.3067 95.1133 42.68 94.452 43C93.7907 43.2987 92.916 43.448 91.828 43.448ZM92.308 40.728C93.6307 40.728 94.6973 40.3547 95.508 39.608C96.3187 38.84 96.724 37.7947 96.724 36.472V36.152H92.116C91.2413 36.152 90.5373 36.344 90.004 36.728C89.4707 37.0907 89.204 37.6347 89.204 38.36C89.204 39.0853 89.4813 39.6613 90.036 40.088C90.5907 40.5147 91.348 40.728 92.308 40.728ZM105.401 43V27.224H108.633V29.08H109.145C109.443 28.5253 109.923 28.0347 110.585 27.608C111.246 27.1813 112.142 26.968 113.273 26.968C114.446 26.968 115.385 27.2133 116.089 27.704C116.814 28.1733 117.358 28.7813 117.721 29.528H118.233C118.595 28.8027 119.118 28.1947 119.801 27.704C120.505 27.2133 121.497 26.968 122.777 26.968C123.801 26.968 124.707 27.1813 125.497 27.608C126.286 28.0133 126.915 28.632 127.385 29.464C127.854 30.2747 128.089 31.288 128.089 32.504V43H124.793V32.76C124.793 31.8 124.526 31.064 123.993 30.552C123.481 30.0187 122.745 29.752 121.785 29.752C120.761 29.752 119.939 30.0827 119.321 30.744C118.702 31.4053 118.393 32.3547 118.393 33.592V43H115.097V32.76C115.097 31.8 114.83 31.064 114.297 30.552C113.785 30.0187 113.049 29.752 112.089 29.752C111.065 29.752 110.243 30.0827 109.625 30.744C109.006 31.4053 108.697 32.3547 108.697 33.592V43H105.401ZM132.838 43V27.224H136.07V29.08H136.582C136.838 28.4187 137.244 27.9387 137.798 27.64C138.374 27.32 139.078 27.16 139.91 27.16H141.798V30.136H139.782C138.716 30.136 137.841 30.4347 137.158 31.032C136.476 31.608 136.134 32.504 136.134 33.72V43H132.838ZM149.672 43.448C148.541 43.448 147.528 43.256 146.632 42.872C145.757 42.488 145.053 41.9227 144.52 41.176C144.008 40.4293 143.752 39.5227 143.752 38.456C143.752 37.368 144.008 36.472 144.52 35.768C145.053 35.0427 145.768 34.4987 146.664 34.136C147.581 33.7733 148.616 33.592 149.768 33.592H154.568V32.568C154.568 31.6507 154.29 30.9147 153.736 30.36C153.181 29.8053 152.328 29.528 151.176 29.528C150.045 29.528 149.181 29.7947 148.584 30.328C147.986 30.8613 147.592 31.5547 147.4 32.408L144.328 31.416C144.584 30.5627 144.989 29.7947 145.544 29.112C146.12 28.408 146.877 27.8427 147.816 27.416C148.754 26.9893 149.885 26.776 151.208 26.776C153.256 26.776 154.866 27.2987 156.04 28.344C157.213 29.3893 157.8 30.872 157.8 32.792V39.288C157.8 39.928 158.098 40.248 158.696 40.248H160.04V43H157.576C156.829 43 156.221 42.808 155.752 42.424C155.282 42.04 155.048 41.5173 155.048 40.856V40.76H154.568C154.397 41.08 154.141 41.4533 153.8 41.88C153.458 42.3067 152.957 42.68 152.296 43C151.634 43.2987 150.76 43.448 149.672 43.448ZM150.152 40.728C151.474 40.728 152.541 40.3547 153.352 39.608C154.162 38.84 154.568 37.7947 154.568 36.472V36.152H149.96C149.085 36.152 148.381 36.344 147.848 36.728C147.314 37.0907 147.048 37.6347 147.048 38.36C147.048 39.0853 147.325 39.6613 147.88 40.088C148.434 40.5147 149.192 40.728 150.152 40.728ZM160.236 49.4V46.552H162.381C162.999 46.552 163.309 46.232 163.309 45.592V27.224H166.605V46.232C166.605 47.192 166.327 47.96 165.773 48.536C165.218 49.112 164.439 49.4 163.437 49.4H160.236ZM164.973 25.08C164.333 25.08 163.789 24.8773 163.341 24.472C162.914 24.0453 162.701 23.5013 162.701 22.84C162.701 22.1787 162.914 21.6453 163.341 21.24C163.789 20.8133 164.333 20.6 164.973 20.6C165.634 20.6 166.178 20.8133 166.605 21.24C167.031 21.6453 167.245 22.1787 167.245 22.84C167.245 23.5013 167.031 24.0453 166.605 24.472C166.178 24.8773 165.634 25.08 164.973 25.08ZM173.319 49.4V46.52H182.119C182.716 46.52 183.015 46.2 183.015 45.56V40.696H182.503C182.311 41.1227 182.012 41.5387 181.607 41.944C181.223 42.328 180.7 42.648 180.039 42.904C179.377 43.16 178.545 43.288 177.543 43.288C176.348 43.288 175.281 43.0213 174.343 42.488C173.404 41.9547 172.668 41.1973 172.135 40.216C171.601 39.2347 171.335 38.072 171.335 36.728V27.224H174.631V36.472C174.631 37.8373 174.972 38.8507 175.655 39.512C176.337 40.152 177.287 40.472 178.503 40.472C179.847 40.472 180.924 40.024 181.735 39.128C182.567 38.232 182.983 36.9307 182.983 35.224V27.224H186.279V46.232C186.279 47.192 185.991 47.96 185.415 48.536C184.86 49.112 184.092 49.4 183.111 49.4H173.319ZM196.047 43.448C194.916 43.448 193.903 43.256 193.007 42.872C192.132 42.488 191.428 41.9227 190.895 41.176C190.383 40.4293 190.127 39.5227 190.127 38.456C190.127 37.368 190.383 36.472 190.895 35.768C191.428 35.0427 192.143 34.4987 193.039 34.136C193.956 33.7733 194.991 33.592 196.143 33.592H200.943V32.568C200.943 31.6507 200.665 30.9147 200.111 30.36C199.556 29.8053 198.703 29.528 197.551 29.528C196.42 29.528 195.556 29.7947 194.959 30.328C194.361 30.8613 193.967 31.5547 193.775 32.408L190.703 31.416C190.959 30.5627 191.364 29.7947 191.919 29.112C192.495 28.408 193.252 27.8427 194.191 27.416C195.129 26.9893 196.26 26.776 197.583 26.776C199.631 26.776 201.241 27.2987 202.415 28.344C203.588 29.3893 204.175 30.872 204.175 32.792V39.288C204.175 39.928 204.473 40.248 205.071 40.248H206.415V43H203.951C203.204 43 202.596 42.808 202.127 42.424C201.657 42.04 201.423 41.5173 201.423 40.856V40.76H200.943C200.772 41.08 200.516 41.4533 200.175 41.88C199.833 42.3067 199.332 42.68 198.671 43C198.009 43.2987 197.135 43.448 196.047 43.448ZM196.527 40.728C197.849 40.728 198.916 40.3547 199.727 39.608C200.537 38.84 200.943 37.7947 200.943 36.472V36.152H196.335C195.46 36.152 194.756 36.344 194.223 36.728C193.689 37.0907 193.423 37.6347 193.423 38.36C193.423 39.0853 193.7 39.6613 194.255 40.088C194.809 40.5147 195.567 40.728 196.527 40.728Z" fill="white"/>
<g clip-path="url(#clip0_0_1)">
<path d="M41.5518 50.1363H14.4141V53.6948H41.5518V50.1363Z" fill="#27F9F8"/>
<path d="M37.9907 35.8074V48.0237H41.5462V27.2178L24.2958 44.4652H20.4914L41.5521 23.4074C41.5454 22.6577 41.479 21.9096 41.3536 21.1704C39.727 12.1274 31.6025 9.65631 31.5758 9.64742L31.2796 9.55853H14.3907V41.6622L23.7803 32.2726V27.2356L17.9492 33.0667V13.12H30.7403C31.9909 13.6125 33.146 14.3194 34.1536 15.2089C34.8112 15.7747 35.392 16.4242 35.881 17.1408C36.1873 17.5576 36.4626 17.9963 36.7047 18.4533C37.2837 19.5757 37.677 20.7844 37.8692 22.0326L14.3877 45.5082V48.0237H25.7773L37.9907 35.8074Z" fill="#27F9F8"/>
<path d="M28.0437 7.45187H14.4141V2.34076H17.8215V5.74817H19.5252V2.34076H22.9326V5.74817H24.6363V2.34076H28.0437V7.45187Z" fill="white"/>
</g>
<defs>
<clipPath id="clip0_0_1">
<rect width="56" height="56" fill="white"/>
</clipPath>
</defs>
</svg>
