<svg width="375" height="375" viewBox="0 0 375 375" fill="none" xmlns="http://www.w3.org/2000/svg">
<g clip-path="url(#clip0_1_11)">
<rect width="375" height="375" fill="white"/>
<g clip-path="url(#clip1_1_11)">
<path d="M399.93 -4.33H-25.04V379.45H399.93V-4.33Z" fill="#0C131F"/>
<path d="M233.24 262.21H141.65V274.22H233.24V262.21Z" fill="#27F9F8"/>
<path d="M221.22 213.85V255.08H233.22V184.86L175 243.07H162.16L233.24 172C233.217 169.47 232.993 166.945 232.57 164.45C227.08 133.93 199.66 125.59 199.57 125.56L198.57 125.26H141.57V233.61L173.26 201.92V184.92L153.58 204.6V137.28H196.75C200.971 138.942 204.869 141.328 208.27 144.33C210.489 146.24 212.449 148.432 214.1 150.85C215.134 152.257 216.063 153.737 216.88 155.28C218.834 159.068 220.161 163.147 220.81 167.36L141.56 246.59V255.08H180L221.22 213.85Z" fill="#27F9F8"/>
<path d="M187.65 118.15H141.65V100.9H153.15V112.4H158.9V100.9H170.4V112.4H176.15V100.9H187.65V118.15Z" fill="white"/>
</g>
</g>
<defs>
<clipPath id="clip0_1_11">
<rect width="375" height="375" fill="white"/>
</clipPath>
<clipPath id="clip1_1_11">
<rect width="418.89" height="375.12" fill="white" transform="translate(-22)"/>
</clipPath>
</defs>
</svg>
